<svg width="135" height="32" viewBox="0 0 135 32" version="1.1" xmlns="http://www.w3.org/2000/svg" xmlns:xlink="http://www.w3.org/1999/xlink">
<title>Trafi Logo</title>
<desc>Created using Figma</desc>
<g id="Canvas" transform="translate(-1218 -1016)">
<rect x="1218" y="1016" width="135" height="32" fill="#FFFFFF"/>
<clipPath id="clip-0" clip-rule="evenodd">
<path d="M 1000 1000L 2024 1000L 2024 1064L 1000 1064L 1000 1000Z" fill="#FFFFFF"/>
</clipPath>
<g id="Navigation" clip-path="url(#clip-0)">
<g id="Background" filter="url(#filter0_d)">
<use xlink:href="#path0_fill" transform="translate(1000 1000)" fill="#FFFFFF"/>
</g>
<g id="Content">
<g id="Cell (Trafi Logo)">
<g id="Background">
<use xlink:href="#path1_fill" transform="translate(1202 1000)" fill="#FFFFFF"/>
</g>
<g id="Trafi Logo">
<g id="Trafi Logo Symbol">
<g id="Group">
<g id="Group">
<g id="Vector">
<use xlink:href="#path2_fill" transform="translate(1337.13 1017.56)" fill="#FF1499"/>
</g>
<g id="Vector">
<use xlink:href="#path3_fill" transform="translate(1312.05 1016)" fill="#FF1499"/>
</g>
<g id="Group">
<g id="Vector" style="mix-blend-mode:multiply" opacity="0.4">
<use xlink:href="#path4_fill" transform="translate(1337.13 1017.56)" fill="url(#paint4_linear)"/>
</g>
<g id="Vector">
<use xlink:href="#path5_fill" transform="translate(1337.13 1025.73)" fill="#FF1499"/>
</g>
</g>
<g id="Group">
<g id="Vector">
<use xlink:href="#path6_fill" transform="translate(1324.13 1016.8)" fill="#FF1499"/>
</g>
<g id="Vector">
<use xlink:href="#path7_fill" transform="translate(1324.13 1016.8)" fill="#FF1499"/>
</g>
<g id="Vector" style="mix-blend-mode:multiply" opacity="0.4">
<use xlink:href="#path7_fill" transform="translate(1324.13 1016.8)" fill="url(#paint8_linear)"/>
</g>
<g id="Vector">
<use xlink:href="#path8_fill" transform="translate(1324.13 1022.56)" fill="#FF1499"/>
</g>
</g>
</g>
</g>
</g>
<g id="Text">
<g id="Shape">
<use xlink:href="#path9_fill" transform="translate(1218 1018.46)" fill="#FF1499"/>
</g>
<g id="Shape">
<use xlink:href="#path10_fill" transform="translate(1240.14 1025.85)" fill="#FF1499"/>
</g>
<g id="Shape">
<use xlink:href="#path11_fill" transform="translate(1275.65 1017.75)" fill="#FF1499"/>
</g>
<g id="Shape">
<use xlink:href="#path12_fill" transform="translate(1252.38 1025.6)" fill="#FF1499"/>
</g>
</g>
</g>
</g>
</g>
</g>
</g>
<defs>
<filter id="filter0_d" filterUnits="userSpaceOnUse" x="1000" y="1000" width="1024" height="64" color-interpolation-filters="sRGB">
<feFlood flood-opacity="0" result="BackgroundImageFix"/>
<feColorMatrix in="SourceAlpha" type="matrix" values="0 0 0 0 0 0 0 0 0 0 0 0 0 0 0 0 0 0 255 0"/>
<feOffset dx="0" dy="1"/>
<feGaussianBlur stdDeviation="1"/>
<feColorMatrix type="matrix" values="0 0 0 0 0.0666667 0 0 0 0 0.0666667 0 0 0 0 0.0666667 0 0 0 0.12 0"/>
<feBlend mode="normal" in2="BackgroundImageFix" result="effect1_dropShadow"/>
<feBlend mode="normal" in="SourceGraphic" in2="effect1_dropShadow" result="shape"/>
</filter>
<linearGradient id="paint4_linear" x1="0" y1="0" x2="1" y2="0" gradientUnits="userSpaceOnUse" gradientTransform="matrix(-11.1272 -12.3857 12.5037 -11.0222 5.95857 18.8087)">
<stop offset="0"/>
<stop offset="0.0472724" stop-color="#303030"/>
<stop offset="0.0978914" stop-color="#5B5B5B"/>
<stop offset="0.1541" stop-color="#828282"/>
<stop offset="0.2147" stop-color="#A4A4A4"/>
<stop offset="0.2808" stop-color="#C0C0C0"/>
<stop offset="0.3545" stop-color="#D8D8D8"/>
<stop offset="0.439" stop-color="#E9E9E9"/>
<stop offset="0.5408" stop-color="#F6F6F6"/>
<stop offset="0.6777" stop-color="#FDFDFD"/>
<stop offset="1" stop-color="#FFFFFF"/>
</linearGradient>
<linearGradient id="paint8_linear" x1="0" y1="0" x2="1" y2="0" gradientUnits="userSpaceOnUse" gradientTransform="matrix(-12.3508 -3.74981 3.78554 -12.2342 6.85498 14.8455)">
<stop offset="0"/>
<stop offset="0.0472724" stop-color="#303030"/>
<stop offset="0.0978914" stop-color="#5B5B5B"/>
<stop offset="0.1541" stop-color="#828282"/>
<stop offset="0.2147" stop-color="#A4A4A4"/>
<stop offset="0.2808" stop-color="#C0C0C0"/>
<stop offset="0.3545" stop-color="#D8D8D8"/>
<stop offset="0.439" stop-color="#E9E9E9"/>
<stop offset="0.5408" stop-color="#F6F6F6"/>
<stop offset="0.6777" stop-color="#FDFDFD"/>
<stop offset="1" stop-color="#FFFFFF"/>
</linearGradient>
<path id="path0_fill" d="M 0 0L 1024 0L 1024 64L 0 64L 0 0Z"/>
<path id="path1_fill" fill-rule="evenodd" d="M 0 0L 167 0L 167 64L 0 64L 0 0Z"/>
<path id="path2_fill" d="M 9.03161 14.4431L 0.0869623 25.0152C -0.0432996 25.17 -0.0259314 25.4023 0.130383 25.5313L 4.06429 28.8001C 4.22061 28.9292 4.45508 28.9119 4.58534 28.7571L 15.2321 16.1894C 16.0831 15.1829 16.0831 13.7119 15.2321 12.7055L 4.58534 0.129154C 4.45508 -0.025685 4.22061 -0.0428893 4.06429 0.0861429L 0.130383 3.35496C -0.0259314 3.48399 -0.0432996 3.71625 0.0869623 3.87109L 9.03161 14.4431Z"/>
<path id="path3_fill" d="M 5.48837 32L 0.382101 32C 0.173682 32 2.46818e-15 31.828 2.46818e-15 31.6215L 2.46818e-15 0.378494C 2.46818e-15 0.172042 0.173682 0 0.382101 0L 5.48837 0C 5.69679 0 5.87047 0.172042 5.87047 0.378494L 5.87047 31.6129C 5.87047 31.828 5.69679 32 5.48837 32Z"/>
<path id="path4_fill" d="M 4.06429 0.0826171L 0.130383 3.35143C -0.0259314 3.48047 -0.0432996 3.71272 0.0869623 3.86756L 9.03161 14.4396L 12.8613 9.91488L 4.57666 0.134229C 4.44639 -0.0206095 4.22061 -0.0464152 4.06429 0.0826171Z"/>
<path id="path5_fill" d="M 15.2234 4.53333L 11.3937 5.25034e-07C 12.2534 1.01505 12.2361 2.47742 11.4111 3.46667L 9.03161 6.27097L 0.0869623 16.843C -0.0432996 16.9979 -0.0259314 17.2301 0.130383 17.3591L 4.06429 20.628C 4.22061 20.757 4.45508 20.7398 4.58534 20.5849L 15.2321 8.0172C 16.0831 7.00215 16.0831 5.53978 15.2234 4.53333Z"/>
<path id="path6_fill" d="M 4.79022 15.1966L 0.0226339 28.1687C -0.0468391 28.3579 0.0486863 28.5644 0.239737 28.6332L 5.06811 30.3708C 5.25916 30.4396 5.46758 30.345 5.53705 30.1558L 10.6867 16.1256C 10.9038 15.5235 10.9038 14.8611 10.6867 14.259L 5.54574 0.237475C 5.47626 0.0482278 5.26785 -0.0463959 5.0768 0.0224213L 0.248422 1.76006C 0.0573709 1.82887 -0.0381544 2.03532 0.0313186 2.22457L 4.79022 15.1966Z"/>
<path id="path7_fill" d="M 5.06811 0.0224213L 0.239737 1.76006C 0.0486863 1.82887 -0.0468391 2.03532 0.0226339 2.22457L 4.79022 15.1966L 7.9165 6.68909L 5.54574 0.237475C 5.47626 0.0482278 5.25916 -0.0463959 5.06811 0.0224213Z"/>
<path id="path8_fill" d="M 10.6954 8.50753L 7.9165 0.937635L 7.56914 -1.05007e-06C 7.79493 0.610752 7.79493 1.28172 7.56914 1.88387L 4.79022 9.44516L 0.0226339 22.4172C -0.0468391 22.6065 0.0486863 22.8129 0.239737 22.8817L 5.06811 24.6194C 5.25916 24.6882 5.46758 24.5935 5.53705 24.4043L 7.90782 17.9527L 10.6867 10.3828C 10.9212 9.76344 10.9212 9.10968 10.6954 8.50753Z"/>
<path id="path9_fill" d="M 22.8839 3.72732L 22.8839 0.386473C 22.8839 0.171766 22.7078 0 22.4878 0L 0.396067 0C 0.17603 0 0 0.171766 0 0.386473L 0 3.72732C 0 3.94202 0.17603 4.11379 0.396067 4.11379L 9.14474 4.11379L 9.14474 26.9329C 9.14474 27.1476 9.32077 27.3193 9.54081 27.3193L 13.343 27.3193C 13.5631 27.3193 13.7391 27.1476 13.7391 26.9329L 13.7391 4.11379L 22.4878 4.11379C 22.7078 4.11379 22.8839 3.94202 22.8839 3.72732Z"/>
<path id="path10_fill" d="M 11.7412 0.334943C 11.0371 0.111648 10.2713 0 9.44399 0C 7.03238 0 5.3337 0.884594 4.33913 2.65378L 4.33913 0.635533C 4.33913 0.420826 4.1631 0.24906 3.94306 0.24906L 0.396067 0.24906C 0.17603 0.24906 0 0.420826 0 0.635533L 0 19.5384C 0 19.7531 0.17603 19.9248 0.396067 19.9248L 4.03108 19.9248C 4.25112 19.9248 4.42715 19.7531 4.42715 19.5384L 4.42715 9.05206C 4.42715 7.44605 4.80561 6.26086 5.58014 5.47933C 6.34587 4.70638 7.34044 4.31991 8.55504 4.31991C 9.26796 4.31991 9.98088 4.44015 10.6938 4.67203C 10.9138 4.74074 11.1515 4.61191 11.2043 4.38862L 12.014 0.790123C 12.0492 0.592592 11.9348 0.40365 11.7412 0.334943Z"/>
<path id="path11_fill" d="M 18.9232 8.34782L 8.3262 8.34782L 8.3262 6.76757C 8.3262 5.77133 8.57264 5.02415 9.07433 4.52603C 9.56721 4.02791 10.2273 3.77885 11.0547 3.77885C 11.882 3.77885 12.6565 4.00214 13.3783 4.44873C 13.5719 4.56897 13.8359 4.49168 13.9415 4.28556L 15.2794 1.64895C 15.3762 1.46001 15.297 1.23671 15.1121 1.14224C 13.7303 0.377885 12.2517 0 10.6762 0C 8.77508 0 7.17321 0.54965 5.87059 1.65754C 4.56797 2.76543 3.91666 4.3972 3.91666 6.55286L 3.91666 8.33923L 0.396067 8.33923C 0.17603 8.33923 0 8.51099 0 8.7257L 0 11.9377C 0 12.1524 0.17603 12.3242 0.396067 12.3242L 3.91666 12.3242L 3.91666 27.6285C 3.91666 27.8432 4.09269 28.015 4.31273 28.015L 7.94774 28.015C 8.16777 28.015 8.3438 27.8432 8.3438 27.6285L 8.3438 12.3328L 14.9097 12.3328L 14.9097 27.6371C 14.9097 27.8518 15.0857 28.0236 15.3058 28.0236L 18.9408 28.0236C 19.1608 28.0236 19.3369 27.8518 19.3369 27.6371L 19.3369 8.73429C 19.3193 8.51958 19.1432 8.34782 18.9232 8.34782Z"/>
<path id="path12_fill" fill-rule="evenodd" d="M 16.9429 0.498108L 20.4899 0.498108C 20.7098 0.498108 20.8859 0.669861 20.8859 0.884583L 20.8859 5.90015L 20.8859 14.8749L 20.8859 19.8905C 20.8859 20.1052 20.7098 20.277 20.4899 20.277L 16.9429 20.277C 16.7228 20.277 16.5468 20.1052 16.5468 19.8905L 16.5468 17.9066C 14.6281 19.6929 12.3309 20.5947 9.65527 20.5947C 7.04114 20.5947 4.78796 19.6844 2.86926 17.855C 0.959351 16.0258 0 13.5266 0 10.3403C 0 7.07672 1.00342 4.53461 3.01892 2.72247C 5.03442 0.910339 7.4021 0 10.1217 0C 12.9558 0 15.1034 0.927551 16.5468 2.78259L 16.5468 0.884583C 16.5468 0.669861 16.7228 0.498108 16.9429 0.498108ZM 10.3416 16.6441C 11.9874 16.6441 13.4133 16.0773 14.6367 14.9437C 15.8513 13.81 16.4586 12.2297 16.4674 10.2115C 16.4674 8.19324 15.8689 6.63019 14.6631 5.52228C 13.4573 4.42297 12.0315 3.86475 10.3856 3.86475C 8.76611 3.86475 7.37549 4.41437 6.19604 5.52228C 5.01672 6.63019 4.427 8.21045 4.427 10.2545C 4.427 12.2985 4.99915 13.8787 6.1521 14.9866C 7.29626 16.0945 8.69568 16.6441 10.3416 16.6441Z"/>
</defs>
</svg>
